<svg xmlns="http://www.w3.org/2000/svg" xmlns:xlink="http://www.w3.org/1999/xlink" viewBox="0 0 335.45 181.29"><defs><style>.cls-1{fill:none;}.cls-2{fill:#417dac;}.cls-3{clip-path:url(#clip-path);}.cls-4{clip-path:url(#clip-path-2);}.cls-5{clip-path:url(#clip-path-3);}.cls-6{clip-path:url(#clip-path-4);}.cls-7{fill:#5695c0;}.cls-8{clip-path:url(#clip-path-5);}.cls-9{fill:#6aa9cd;}.cls-10{clip-path:url(#clip-path-6);}.cls-11{fill:#81bcd9;}.cls-12{clip-path:url(#clip-path-7);}.cls-13{clip-path:url(#clip-path-8);}.cls-14{clip-path:url(#clip-path-9);}.cls-15{clip-path:url(#clip-path-10);}</style><clipPath id="clip-path"><path class="cls-1" d="M107.77,5V142h25.7V61.19a83.14,83.14,0,0,1,20.89-2.75c3.91,0,4.8,3.34,4.8,6.85V142h25.69V62.88c0-16.59-8.95-25-28.09-25-6.84,0-14.73,2.17-23.29,4V5Z"/></clipPath><clipPath id="clip-path-2"><path class="cls-1" d="M5,41.54c0,39.72,65.71,41.51,65.71,66.14,0,9.93-3.45,14.09-12.39,14.09-17.47,0-44.75-2.38-44.75-2.38v20.66c12.84,1,28,2,46,2,23.83,0,41.29-11.12,41.29-36.54,0-42.5-66.55-45.68-66.55-67.92,0-8.74,5.67-12.51,14.21-12.51,16.28,0,46.38,2.78,46.38,2.78v-21C82.08,6,71.78,5,47.16,5,22.93,5,5,15.92,5,41.54"/></clipPath><clipPath id="clip-path-3"><path class="cls-1" d="M227.68,39.26V149.57c0,5.76,0,10.56-12.85,12.27v13.54a65.58,65.58,0,0,0,11.58.91c15.43,0,27-4.95,27-28.78V39.26Z"/></clipPath><clipPath id="clip-path-4"><path class="cls-1" d="M195.56,17.85a10.71,10.71,0,1,0,10.7-10.71,10.7,10.7,0,0,0-10.7,10.71"/></clipPath><clipPath id="clip-path-5"><path class="cls-1" d="M167.73,17.85a8.56,8.56,0,1,0,8.56-8.57,8.56,8.56,0,0,0-8.56,8.57"/></clipPath><clipPath id="clip-path-6"><path class="cls-1" d="M150.6,17.85a4.28,4.28,0,1,0,4.28-4.28,4.28,4.28,0,0,0-4.28,4.28"/></clipPath><clipPath id="clip-path-7"><path class="cls-1" d="M227.67,17.85A12.85,12.85,0,1,0,240.52,5a12.85,12.85,0,0,0-12.85,12.85"/></clipPath><clipPath id="clip-path-8"><path class="cls-1" d="M264.08,17.85a10.71,10.71,0,1,0,10.7-10.71,10.7,10.7,0,0,0-10.7,10.71"/></clipPath><clipPath id="clip-path-9"><path class="cls-1" d="M296.19,17.85a8.57,8.57,0,1,0,8.57-8.57,8.57,8.57,0,0,0-8.57,8.57"/></clipPath><clipPath id="clip-path-10"><path class="cls-1" d="M321.89,17.85a4.28,4.28,0,1,0,4.28-4.28,4.28,4.28,0,0,0-4.28,4.28"/></clipPath></defs><title>Asset 1</title><g id="Layer_2" data-name="Layer 2"><g id="Layer_1-2" data-name="Layer 1"><rect class="cls-2" x="261.93" y="39.26" width="25.69" height="102.77"/><rect class="cls-2" x="193.42" y="39.26" width="25.69" height="102.77"/><g class="cls-3"><rect class="cls-2" x="102.77" width="87.08" height="147.03"/></g><g class="cls-4"><rect class="cls-2" width="105.89" height="147.03"/></g><g class="cls-5"><rect class="cls-2" x="209.83" y="34.26" width="48.54" height="147.03"/></g><g class="cls-6"><rect class="cls-7" x="190.56" y="2.14" width="31.41" height="31.41"/></g><g class="cls-8"><rect class="cls-9" x="162.73" y="4.28" width="27.13" height="27.13"/></g><g class="cls-10"><rect class="cls-11" x="145.6" y="8.57" width="18.56" height="18.56"/></g><g class="cls-12"><rect class="cls-2" x="222.68" width="35.7" height="35.69"/></g><g class="cls-13"><rect class="cls-7" x="259.08" y="2.14" width="31.41" height="31.41"/></g><g class="cls-14"><rect class="cls-9" x="291.19" y="4.28" width="27.13" height="27.13"/></g><g class="cls-15"><rect class="cls-11" x="316.89" y="8.57" width="18.56" height="18.56"/></g></g></g></svg>